# xmcd
#
# Track frame offsets:
#	150
#	14075
#	27402
#	39887
#	52465
#	64337
#	76672
#	87590
#	99710
#	111442
#	123507
#	136680
#	149415
#	161917
#	174305
#	186585
#
# Disc length: 2640 seconds
#
# Revision: 3
# Processed by: cddbd v1.5.2PL0 Copyright (c) Steve Scherf et al.
# Submitted via: VUPlayer 2.49
#
DISCID=ed0a4e10
DTITLE=Various Artist - Vintage Country
DYEAR=1998
DGENRE=Country
TTITLE0=Jimmie Rodgers - My Little Lady
TTITLE1=Jimmie Rodgers - Daddy and Home
TTITLE2=Jimmie Rodgers - Waiting for a Train
TTITLE3=Jimmie Rodgers - Any old Time
TTITLE4=Gene Autry - Back inthe Saddle again
TTITLE5=Gene Autry - It makes no Difference now
TTITLE6=Gene Autry - You are my Sunshine
TTITLE7=Bob Wills&His Texas Playboys - Time Changes Everyth
TTITLE8=Bob Wills&His Texas Playboys - New San Antonio Rose
TTITLE9=Bob Wills&His Texas Playboys - Take me back to Tusl
TTITLE10=Roy Acuff&His Crazy Tennesseans - Great Speckled Bi
TTITLE11=Roy Acuff&His Smokey Mountain Boys - Night Train to
TTITLE12=Roy Acuff&His Smokey Mountain Boys - Wreck on the H
TTITLE13=Bill Monroe&His Bluegrass Boys - Mule Skinner Blues
TTITLE14=Bill Monroe&His Bluegrass Boys - No Letter in the M
TTITLE15=Bill Monroe&His Bluegrass Boys - Orange Blossom Spe
EXTD=Gold Sound DCD-813-1
EXTT0=
EXTT1=
EXTT2=
EXTT3=
EXTT4=
EXTT5=
EXTT6=
EXTT7=
EXTT8=
EXTT9=
EXTT10=
EXTT11=
EXTT12=
EXTT13=
EXTT14=
EXTT15=
PLAYORDER=
